<svg width="24" height="24" viewBox="0 0 24 24" fill="none" xmlns="http://www.w3.org/2000/svg">
    <path fill-rule="evenodd" clip-rule="evenodd" d="M15.0444 4.77104C14.3809 4.77104 13.7446 5.03461 13.2754 5.50376L6.38294 12.3963C5.63232 13.1469 5.21063 14.1649 5.21063 15.2265C5.21063 16.288 5.63232 17.306 6.38294 18.0567C7.13355 18.8073 8.15161 19.229 9.21313 19.229C10.2747 19.229 11.2927 18.8073 12.0433 18.0567L19.2894 10.8106L19.9965 11.5177L12.7504 18.7638C11.8123 19.7019 10.5399 20.229 9.21313 20.229C7.88639 20.229 6.61398 19.7019 5.67583 18.7638C4.73768 17.8256 4.21063 16.5532 4.21063 15.2265C4.21063 13.8997 4.73768 12.6273 5.67583 11.6892L12.5683 4.79666C13.225 4.13997 14.1157 3.77104 15.0444 3.77104C15.9731 3.77104 16.8637 4.13997 17.5204 4.79666C18.1771 5.45335 18.5461 6.34401 18.5461 7.27271C18.5461 8.20141 18.1771 9.09207 17.5204 9.74876L10.6204 16.6413C10.2452 17.0165 9.73629 17.2273 9.20563 17.2273C8.67498 17.2273 8.16606 17.0165 7.79083 16.6413C7.4156 16.266 7.2048 15.7571 7.2048 15.2265C7.2048 14.6958 7.4156 14.1869 7.79083 13.8117L14.5123 7.0981L15.219 7.80563L8.49794 14.5188C8.31025 14.7065 8.2048 14.961 8.2048 15.2265C8.2048 15.4919 8.31025 15.7465 8.49794 15.9342C8.68563 16.1218 8.9402 16.2273 9.20563 16.2273C9.47107 16.2273 9.72564 16.1218 9.91333 15.9342L16.8133 9.04166C17.2825 8.5725 17.5461 7.93619 17.5461 7.27271C17.5461 6.60923 17.2825 5.97292 16.8133 5.50376C16.3442 5.03461 15.7079 4.77104 15.0444 4.77104Z" fill="#212132"/>
</svg>
